<svg xmlns="http://www.w3.org/2000/svg" viewBox="0 0 36 36"><path d="M33.16,6.16c-0.13-0.06-0.28-0.04-0.4,0.04l-9.39,7.51V6.5c0-0.14-0.08-0.28-0.21-0.34c-0.13-0.06-0.28-0.04-0.4,0.04
	l-9.39,7.51V6.5c0-0.14-0.08-0.28-0.21-0.34s-0.28-0.04-0.4,0.04l-10,8c-0.09,0.07-0.14,0.18-0.14,0.29v15
	c0,0.21,0.17,0.38,0.38,0.38h10h10h10c0.21,0,0.38-0.17,0.38-0.38v-23C33.38,6.36,33.29,6.22,33.16,6.16z M12.63,14.5v14.63H3.38
	V14.68l9.25-7.4V14.5z M22.63,14.5v14.63h-9.25V14.68l9.25-7.4V14.5z M32.63,29.12h-9.25V14.68l9.25-7.4V29.12z"/></svg>
